<svg width="40" height="40" viewBox="0 0 40 40" fill="none" xmlns="http://www.w3.org/2000/svg">
<g clip-path="url(#clip0_1948_157588)">
<path d="M39.3994 24.8381C36.7282 35.5525 25.8763 42.0731 15.1606 39.4012C4.44946 36.7301 -2.0711 25.8775 0.601214 15.1639C3.27118 4.44838 14.1231 -2.07268 24.8355 0.598468C35.5503 3.26961 42.0705 14.1234 39.3991 24.8383L39.3993 24.8381H39.3994Z" fill="#F7931A"/>
<path d="M28.8191 17.1506C29.2172 14.489 27.1908 13.0583 24.42 12.1039L25.3189 8.49857L23.1242 7.95171L22.2492 11.4621C21.6722 11.3182 21.0797 11.1826 20.4908 11.0482L21.3722 7.51463L19.1789 6.96777L18.2795 10.5719C17.8021 10.4632 17.3331 10.3558 16.8781 10.2426L16.8807 10.2312L13.8542 9.47547L13.2704 11.8195C13.2704 11.8195 14.8986 12.1928 14.8643 12.2157C15.753 12.4375 15.9138 13.0258 15.8871 13.4922L14.8632 17.5995C14.9243 17.615 15.0037 17.6375 15.0913 17.6727C15.0181 17.6545 14.9402 17.6347 14.8593 17.6153L13.4242 23.3691C13.3155 23.6391 13.0399 24.0443 12.4185 23.8904C12.4405 23.9223 10.8234 23.4923 10.8234 23.4923L9.73378 26.0045L12.5898 26.7165C13.1211 26.8497 13.6418 26.9891 14.1545 27.1202L13.2463 30.7669L15.4385 31.3138L16.3378 27.7058C16.9367 27.8684 17.5179 28.0183 18.0868 28.1597L17.1905 31.7506L19.3852 32.2975L20.2933 28.6577C24.0357 29.3659 26.8497 29.0804 28.0341 25.6954C28.9885 22.9701 27.9866 21.3981 26.0177 20.3731C27.4518 20.0423 28.5319 19.0992 28.8199 17.1508L28.8192 17.1504L28.8191 17.1506ZM23.8048 24.1819C23.1266 26.9072 18.538 25.434 17.0503 25.0646L18.2555 20.2334C19.743 20.6047 24.5136 21.3397 23.8049 24.1819H23.8048ZM24.4835 17.1111C23.8648 19.59 20.0457 18.3306 18.8068 18.0218L19.8995 13.6402C21.1383 13.949 25.1281 14.5254 24.4837 17.1111H24.4835Z" fill="white"/>
</g>
<defs>
<clipPath id="clip0_1948_157588">
<rect width="40" height="40" fill="white"/>
</clipPath>
</defs>
</svg>
