<svg width="40" height="40" viewBox="0 0 40 40" fill="none" xmlns="http://www.w3.org/2000/svg">
<rect width="40" height="40" rx="20" fill="black"/>
<path d="M32.495 26.3454L28.3267 30.7004C28.2361 30.795 28.1264 30.8704 28.0046 30.9219C27.8828 30.9735 27.7514 31.0001 27.6186 31H7.85889C7.76461 31 7.67238 30.9732 7.59354 30.9228C7.51469 30.8724 7.45267 30.8007 7.41509 30.7165C7.37751 30.6322 7.36601 30.5392 7.38199 30.4486C7.39798 30.3581 7.44077 30.2741 7.50509 30.2069L11.6765 25.852C11.7669 25.7576 11.8762 25.6824 11.9976 25.6308C12.119 25.5793 12.25 25.5526 12.3825 25.5524H32.1411C32.2354 25.5524 32.3276 25.5792 32.4065 25.6296C32.4852 25.68 32.5472 25.7517 32.585 25.8359C32.6225 25.9201 32.634 26.0132 32.618 26.1038C32.602 26.1943 32.5592 26.2783 32.495 26.3454ZM28.3267 17.5758C28.2361 17.4812 28.1264 17.4058 28.0046 17.3542C27.8828 17.3027 27.7514 17.2761 27.6186 17.2762H7.85889C7.76461 17.2762 7.67238 17.303 7.59354 17.3534C7.51469 17.4038 7.45267 17.4755 7.41509 17.5597C7.37751 17.644 7.36601 17.7371 7.38199 17.8276C7.39798 17.9181 7.44077 18.0021 7.50509 18.0693L11.6765 22.4242C11.7669 22.5185 11.8762 22.5938 11.9976 22.6454C12.119 22.6969 12.25 22.7236 12.3825 22.7238H32.1411C32.2354 22.7238 32.3276 22.697 32.4065 22.6466C32.4852 22.5962 32.5472 22.5245 32.585 22.4403C32.6225 22.356 32.634 22.2629 32.618 22.1724C32.602 22.0819 32.5592 21.9979 32.495 21.9307L28.3267 17.5758ZM7.85889 14.4476H27.6186C27.7514 14.4477 27.8828 14.4211 28.0046 14.3696C28.1264 14.318 28.2361 14.2426 28.3267 14.148L32.495 9.79305C32.5592 9.72589 32.602 9.64189 32.618 9.55137C32.634 9.46085 32.6225 9.36776 32.585 9.28352C32.5472 9.19928 32.4852 9.12757 32.4065 9.07721C32.3276 9.02684 32.2354 9 32.1411 9H12.3825C12.25 9.00022 12.119 9.02692 11.9976 9.07846C11.8762 9.13 11.7669 9.20527 11.6765 9.29962L7.50617 13.6546C7.4419 13.7216 7.39914 13.8056 7.38311 13.896C7.36709 13.9864 7.3785 14.0794 7.41595 14.1636C7.4534 14.2478 7.51525 14.3195 7.59394 14.37C7.67262 14.4204 7.7647 14.4474 7.85889 14.4476Z" fill="url(#paint0_linear_4592_327688)"/>
<defs>
<linearGradient id="paint0_linear_4592_327688" x1="9.50638" y1="31.5243" x2="29.6233" y2="8.24594" gradientUnits="userSpaceOnUse">
<stop offset="0.08" stop-color="#9945FF"/>
<stop offset="0.3" stop-color="#8752F3"/>
<stop offset="0.5" stop-color="#5497D5"/>
<stop offset="0.6" stop-color="#43B4CA"/>
<stop offset="0.72" stop-color="#28E0B9"/>
<stop offset="0.97" stop-color="#19FB9B"/>
</linearGradient>
</defs>
</svg>
