<svg width="40" height="40" viewBox="0 0 40 40" fill="none" xmlns="http://www.w3.org/2000/svg">
<g clip-path="url(#clip0_1948_156006)">
<path d="M19.9999 40C31.0456 40 39.9999 31.0457 39.9999 20C39.9999 8.9543 31.0456 0 19.9999 0C8.95421 0 -9.15527e-05 8.9543 -9.15527e-05 20C-9.15527e-05 31.0457 8.95421 40 19.9999 40Z" fill="#6CDE07"/>
<path fill-rule="evenodd" clip-rule="evenodd" d="M28.1249 23.9425C28.1249 27.155 25.5174 29.2875 21.6674 29.6088V32.5H19.0299V29.58C16.4258 29.2864 13.9515 28.2861 11.8749 26.6875L13.8149 24.03C15.5437 25.3738 17.1799 26.25 19.1512 26.5425V20.8175C14.7249 19.7075 12.6637 18.1013 12.6637 14.8012C12.6637 11.6475 15.2399 9.48625 19.0299 9.19375V7.5H21.6674V9.2525C23.7288 9.48147 25.6942 10.2469 27.3674 11.4725L25.6687 14.2175C24.3349 13.2537 22.9712 12.64 21.5462 12.3488V17.8975C26.1549 19.0075 28.1249 20.7888 28.1249 23.9425ZM19.1499 17.2838V12.1438C17.2412 12.29 16.2412 13.3125 16.2412 14.5975C16.2412 15.8225 16.8162 16.6125 19.1512 17.285L19.1499 17.2838ZM24.5474 24.1463C24.5474 22.8338 23.9099 22.045 21.5462 21.3725V26.66C23.4562 26.5125 24.5474 25.5488 24.5474 24.1475V24.1463Z" fill="white"/>
</g>
<defs>
<clipPath id="clip0_1948_156006">
<rect width="40" height="40" rx="20" fill="white"/>
</clipPath>
</defs>
</svg>
