<svg width="92" height="35" viewBox="0 0 92 35" fill="none" xmlns="http://www.w3.org/2000/svg">
<g clip-path="url(#clip0_4_846)">
<path d="M49.2849 13.5128L53.0698 13.5036C54.9355 13.5022 56.6442 13.2416 57.7754 15.0227C58.127 15.5765 58.144 15.8834 58.148 16.53L58.1506 21.6555C58.1511 21.9344 58.148 22.2346 58.1511 22.5125C58.1672 23.93 58.2827 24.5141 57.2185 25.5925C56.9927 25.8107 56.3845 26.2616 56.0832 26.2898C53.902 26.4943 51.4558 26.2295 49.2862 26.373C49.3504 22.1618 49.3005 17.7358 49.2849 13.5128ZM51.807 23.9191C52.8708 23.91 54.1162 23.9604 55.1702 23.8709C55.2474 23.8643 55.4179 23.7547 55.4884 23.7079C55.8142 23.2707 55.608 21.6206 55.6053 21.0102L55.6067 18.1507C55.6067 17.7946 55.6665 16.4152 55.4358 16.1952C54.9159 15.9405 52.4902 16.0448 51.7512 16.0513C51.8926 16.3954 51.8476 23.0931 51.807 23.9191Z" fill="#2B3B8E"/>
<path d="M79.7399 13.5045L80.1223 13.5004C80.1165 14.2215 80.0862 15.3533 80.1402 16.0521C78.2486 15.9746 75.93 16.0612 73.9911 16.045L73.9951 18.8679C74.6435 18.83 75.4315 18.8491 76.0937 18.8488L79.6413 18.8484C79.6167 19.572 79.6243 20.5744 79.6498 21.2979L73.9915 21.2973L73.9951 23.9226C75.6113 23.8791 77.3731 23.9108 79.0005 23.9108L80.1259 23.9068C80.1134 24.5869 80.0889 25.6946 80.1402 26.3569C79.7167 26.3332 79.1959 26.3391 78.7711 26.35C76.3592 26.4121 73.8487 26.2485 71.4511 26.3704L71.448 17.5951C71.448 16.8532 71.4038 14.1408 71.5185 13.5705C71.7661 13.4513 78.8528 13.5053 79.7399 13.5045Z" fill="#2B3B8E"/>
<path d="M43.7437 13.5045L44.129 13.5137L46.6324 22.1242C47.047 23.544 47.4285 24.9406 47.8854 26.3479C47.0171 26.3484 46.0715 26.3333 45.2112 26.3691C44.9809 25.3458 44.5759 24.2166 44.3949 23.2343C43.5351 23.2726 42.4773 23.2453 41.6027 23.2455C41.3193 23.2499 41.0618 23.2444 40.7784 23.2343C40.6546 24.0178 40.1607 25.5141 39.9442 26.3507L37.2785 26.3517C37.8287 24.7361 38.3815 22.627 38.86 20.9516L41.0396 13.5094L43.7437 13.5045ZM41.3976 20.7079L42.6377 20.7041L43.7315 20.7105C43.5928 20.2215 42.6272 16.1878 42.5068 16.042C42.5148 16.4782 41.5677 20.2745 41.3976 20.7079Z" fill="#2B3B8E"/>
<path d="M66.0365 13.5046L66.2235 13.5181C66.3132 13.5774 66.3805 13.6212 66.4153 13.7391C66.6398 14.5036 66.8638 15.2886 67.0892 16.0511L69.1682 23.2283C69.3917 23.99 69.8326 25.6794 70.1021 26.3487L67.4497 26.3568C67.1695 25.3356 66.8361 24.2466 66.5876 23.2291C66.0155 23.2922 64.1636 23.2485 63.488 23.2476C63.356 23.2535 63.1627 23.2331 63.0262 23.2229C62.9343 23.5059 62.8294 23.9593 62.7486 24.2604C62.5791 24.8934 62.2868 25.7196 62.2167 26.354C61.4113 26.3409 60.3126 26.3226 59.5228 26.3668C59.6348 25.7305 60.1783 24.114 60.3782 23.4192L62.4407 16.3073C62.6406 15.6125 63.119 14.1539 63.2082 13.5085L66.0365 13.5046ZM63.65 20.7093L64.8499 20.704L65.9267 20.7025C65.6045 19.5244 65.3529 18.2779 65.0427 17.0917C65.0066 16.9544 64.8299 16.117 64.7973 16.0511C64.6362 16.5167 64.4831 17.2942 64.3631 17.806C64.1431 18.7402 63.8365 19.7825 63.65 20.7093Z" fill="#2B3B8E"/>
<path d="M33.4358 13.5112C33.8795 13.5073 35.5427 13.4546 35.8783 13.5685C36.0266 13.7838 35.9805 15.5977 35.9807 15.956L35.9813 19.6553L35.9803 22.2951C35.98 22.7192 36.0278 23.4372 35.9405 23.8047C35.3239 26.2233 33.7986 26.4952 31.6156 26.3533C30.1923 26.2607 29.9284 26.6384 28.7013 25.5618C28.681 25.5427 28.661 25.5231 28.6413 25.5032C27.5289 24.3712 27.7915 22.9935 27.7993 21.4789C28.2034 21.4757 30.0911 21.4235 30.2141 21.5413C30.7797 22.0833 29.4777 24.2105 31.5423 23.9177C32.2606 23.8158 32.8758 24.2228 33.4267 23.4096C33.4791 22.4312 33.4376 21.0365 33.4374 20.0262L33.4358 13.5112Z" fill="#2B3B8E"/>
<path d="M0.140806 0.207183C0.61966 0.365784 2.03276 1.26915 2.55557 1.58663L6.59452 4.02617L22.5295 13.6329C22.5937 14.2142 22.5703 15.0636 22.5699 15.6677L22.5582 19.1151L22.5383 23.192C22.5361 23.9654 22.6106 25.7145 22.3549 26.3722C22.2109 26.5335 20.482 27.5751 20.1317 27.7958L11.7905 33.0278C11.2719 33.3552 9.05782 34.6921 8.74189 35H8.71583C8.57535 34.8155 8.39637 34.8369 8.17936 34.7213C7.87583 34.5597 7.57204 34.3979 7.27931 34.2166C5.56858 33.1569 3.75648 32.1975 2.05059 31.1389C1.94568 27.8237 1.9588 24.5808 1.9328 21.2697C1.92492 20.2669 1.95458 18.2286 1.86062 17.3145C2.28024 17.4559 3.59695 18.3813 4.06774 18.6793C5.51565 19.5958 6.95378 20.5583 8.40498 21.471C8.81427 21.3633 10.2145 20.5379 10.532 20.2478C9.92146 19.8153 8.63707 19.1208 7.92871 18.6955C6.24904 17.687 4.56464 16.6192 2.88 15.629L0.938901 14.4731C0.629834 14.2896 0.153123 14.1494 0.130158 13.7731C0.069284 12.7756 0.100119 11.7574 0.10435 10.7559L0.13742 3.56732L0.149333 1.46303C0.152252 1.11262 0.173908 0.542339 0.140806 0.207183ZM2.14789 12.8343C4.70012 14.3175 7.22973 15.9165 9.77273 17.4205C10.6585 17.9444 11.6224 18.5757 12.5059 19.0747C14.0248 18.2013 15.6023 17.2027 17.1131 16.2937C17.6201 15.9838 19.6099 14.8358 19.8717 14.5095L19.8637 14.4409C19.4205 14.1088 18.2159 13.4268 17.6765 13.0971C16.0173 12.0776 14.3502 11.071 12.6754 10.0773L5.5821 5.79857C4.48583 5.13795 3.28724 4.3598 2.17747 3.75194C2.19546 6.7746 2.10246 9.79612 2.14789 12.8343ZM20.3133 16.6967C19.6973 17.1118 14.5818 20.2083 14.5743 20.2202C14.7602 20.4951 16.4785 21.4758 16.89 21.7235C17.6092 22.1341 18.3458 22.599 19.0573 23.0284C19.3863 23.227 20.0763 23.6238 20.3545 23.8404C20.402 23.1701 20.4131 16.847 20.3133 16.6967ZM7.6296 23.3916L5.3298 21.9217C4.95701 21.683 4.36786 21.2774 3.99067 21.0937C4.01258 22.5471 4.02378 24.0006 4.02429 25.4541C4.03606 26.9565 4.07112 28.4738 4.06777 29.9746C4.48771 30.2512 7.44553 32.0908 7.63817 32.0846L7.64339 26.4969C7.6466 25.4938 7.6715 24.3859 7.6296 23.3916ZM19.6148 25.7246C18.3682 24.9431 16.9574 24.1463 15.693 23.3877C15.1806 23.0803 12.8871 21.6249 12.5141 21.5349L12.4862 21.528C11.8377 21.7782 10.4801 22.7328 9.85176 23.1258C9.57528 23.2988 9.67055 26.4717 9.67595 26.8856C9.6979 28.574 9.63445 30.2873 9.6863 31.965C10.1416 31.5971 11.1096 31.0283 11.6381 30.7054C12.4232 30.2259 13.2484 29.6792 14.0331 29.2152L17.5964 26.9671C18.1968 26.5903 19.0059 26.055 19.6148 25.7246Z" fill="#2B3B8E"/>
<path d="M81.316 13.5213C82.233 13.5025 83.15 13.4994 84.0675 13.5119C84.4066 13.9181 84.6079 14.4116 84.8725 14.875C85.4044 15.8058 85.8672 16.814 86.3866 17.7434C87.1635 16.3365 87.8957 14.9153 88.6847 13.5089C89.5682 13.4927 90.5013 13.5079 91.3889 13.5075V13.8409C91.2206 14.0379 90.6361 15.1703 90.4727 15.4633C89.6262 16.9672 88.7895 18.4764 87.9622 19.9908C89.0408 22.0661 90.3246 24.2678 91.3469 26.3443L88.5883 26.3589C88.3121 25.8879 88.0189 25.2626 87.748 24.761C87.2951 23.9212 86.7819 23.0225 86.3834 22.1624C86.0697 22.827 85.7079 23.4772 85.3674 24.1305C84.9903 24.8536 84.6271 25.6397 84.217 26.3396C83.4155 26.3851 82.295 26.3505 81.4597 26.3566C82.5217 24.2209 83.7056 22.0889 84.8123 19.9687C84.0965 18.7333 83.4062 17.4119 82.7087 16.1578C82.3669 15.5428 81.5039 14.0817 81.316 13.5213Z" fill="#2B3B8E"/>
</g>
<defs>
<clipPath id="clip0_4_846">
<rect width="91.3889" height="35" fill="white"/>
</clipPath>
</defs>
</svg>
